<?xml version="1.0" encoding="utf-8"?>
<!-- Svg Vector Icons : http://www.onlinewebfonts.com/icon -->
<svg version="1.1" xmlns="http://www.w3.org/2000/svg" x="0px" y="0px" viewBox="0 0 1000 1000" enable-background="new 0 0 1000 1000" xml:space="preserve">
<metadata> Svg Vector Icons : http://www.onlinewebfonts.com/icon </metadata>
<g><g transform="translate(0.000000,512.000000) scale(0.100000,-0.100000)"><path d="M1563.3,4992.5c-168.5-40.2-298.8-114.9-430.9-249c-210.7-208.8-306.4-496.1-258.6-777.6c38.3-220.3,109.2-350.5,317.9-570.8c99.6-107.3,201.1-235.6,226-283.5l44-90V120v-2901.7l-44-90c-24.9-47.9-126.4-176.2-226-283.4c-212.6-224.1-289.2-365.8-319.8-584.2c-42.1-283.5,51.7-557.3,262.4-768c145.6-145.6,300.7-226,503.7-260.5c595.6-101.5,1145.3,448.2,1043.8,1041.9c-38.3,218.3-107.3,344.8-316,566.9c-99.6,107.3-203,237.5-227.9,287.3l-44,90l-5.7,1298.6l-3.8,1296.7h944.2h944.2l51.7-107.3c74.7-149.4,239.4-317.9,388.8-394.6l122.6-63.2l-3.8-1015.1c-5.7-1191.3,15.3-1080.2-266.2-1371.3c-118.7-126.4-191.5-220.3-239.4-316c-279.6-555.4,57.5-1208.6,678-1313.9c593.7-101.5,1143.4,448.2,1041.9,1041.9c-38.3,218.3-107.2,344.8-316,566.9c-99.6,107.3-203,237.5-227.9,287.3l-44,90l-5.8,1017l-5.7,1015.1l101.5,47.9c134.1,61.3,354.3,281.5,415.6,413.7l46,101.5l1154.9,3.8c1139.6,5.7,1154.9,5.7,1208.5,46c28.7,23,70.9,68.9,91.9,105.3c36.4,63.2,38.3,109.2,47.9,1559l9.6,1493.9l44.1,90c24.9,49.8,126.4,178.1,224.1,283.5c204.9,218.3,283.5,360.1,319.9,570.8c99.6,595.6-446.3,1141.5-1041.9,1041.9c-501.8-84.3-842.7-547.8-766.1-1041.9c30.7-208.8,124.5-375.4,327.5-588c95.8-97.7,193.4-218.3,216.4-268.1l44-88.1l5.7-1296.6l3.8-1298.6H6658h-944.2l-57.5,111.1c-70.9,139.8-277.7,344.8-407.9,404.1l-101.5,47.9l5.7,1015.1l5.8,1017l44,90c24.9,49.8,126.4,178.1,224.1,283.5c204.9,218.3,283.5,360.1,319.9,570.8c99.6,595.6-446.3,1143.4-1041.9,1041.9c-204.9-34.5-360.1-114.9-505.6-260.5c-210.7-210.7-304.5-484.6-262.4-768c30.6-218.3,107.3-360.1,319.8-584.2c293-312.2,270.1-195.4,275.8-1388.6l5.8-1017l-103.4-49.8C4283,865,4110.7,698.4,4036,550.9l-65.1-124.5h-944.2h-942.3l3.8,1298.6l5.7,1296.6l44,90c24.9,49.8,126.4,178.1,224.1,283.5c116.8,124.5,199.2,231.8,237.5,310.3C2934.7,4394.9,2306.5,5174.4,1563.3,4992.5z"/><path d="M6987.4-3097.7v-1379h306.4h306.4v459.7v459.7h212.6h210.7l157.1-157.1c95.8-95.8,181.9-205,218.3-275.8c65.1-120.7,120.7-316,120.7-423.3v-63.2H8828h310.3l-13.4,159c-28.7,339-105.3,511.4-317.9,725.9l-149.4,147.5l76.6,51.7c114.9,80.4,245.2,233.7,304.5,362c162.8,346.7,99.6,735.5-162.8,1020.8c-124.5,134.1-314.1,239.4-488.4,272c-55.5,11.5-394.6,19.2-750.8,19.2h-649.3V-3097.7z M8377.9-2381.4c101.5-74.7,132.2-136,132.2-256.7s-30.6-182-132.2-256.7c-47.9-36.4-84.2-40.2-415.6-45.9l-362-5.7v308.3v308.4l362-5.8C8293.7-2341.2,8330-2345,8377.9-2381.4z"/></g></g>
</svg>